{"title":"The Host 2013 CAM XViD OPTiMUM","uid":8353889,"size":770244653,"categoryP":"video","categoryS":"movies","magnet":"?xt=urn:btih:2ddf01821dfec5d9cff04eecb406178aaa794b67&amp;dn=The+Host+2013+CAM+XViD+OPTiMUM&amp;tr=udp%3A%2F%2Ftracker.openbittorrent.com%3A80&amp;tr=udp%3A%2F%2Fopen.demonii.com%3A1337&amp;tr=udp%3A%2F%2Ftracker.coppersurfer.tk%3A6969&amp;tr=udp%3A%2F%2Fexodus.desync.com%3A6969","seeders":1,"leechers":0,"uploader":"Gh0stNet","files":4,"time":1365432487,"description":"Format                                   : AVI\nFormat/Info                              : Audio Video Interleave\nFile size                                : 727 MiB\nDuration                                 : 1h 51mn\nOverall bit rate                         : 910 Kbps\nWriting application                      : VirtualDubMod 1.5.10.2 (build 2540/release)\nWriting library                          : VirtualDubMod build 2540/release\n\nVideo\nID                                       : 0\nFormat                                   : MPEG-4 Visual\nFormat profile                           : Advanced Simple@L5\nFormat settings, BVOP                    : 2\nFormat settings, QPel                    : No\nFormat settings, GMC                     : No warppoints\nFormat settings, Matrix                  : Default (H.263)\nMuxing mode                              : Packed bitstream\nCodec ID                                 : XVID\nCodec ID/Hint                            : XviD\nDuration                                 : 1h 51mn\nBit rate                                 : 772 Kbps\nWidth                                    : 720 pixels\nHeight                                   : 288 pixels\nDisplay aspect ratio                     : 2.500\nFrame rate                               : 25.000 fps\nColor space                              : YUV\nChroma subsampling                       : 4:2:0\nBit depth                                : 8 bits\nScan type                                : Progressive\nCompression mode                         : Lossy\nBits/(Pixel*Frame)                       : 0.149\nStream size                              : 617 MiB (85%)\nWriting library                          : XviD 64\n\nAudio\nID                                       : 1\nFormat                                   : MPEG Audio\nFormat version                           : Version 1\nFormat profile                           : Layer 3\nMode                                     : Joint stereo\nMode extension                           : MS Stereo\nCodec ID                                 : 55\nCodec ID/Hint                            : MP3\nDuration                                 : 1h 51mn\nBit rate mode                            : Constant\nBit rate                                 : 128 Kbps\nChannel(s)                               : 2 channels\nSampling rate                            : 48.0 KHz\nCompression mode                         : Lossy\nStream size                              : 102 MiB (14%)\nAlignment                                : Split accross interleaves\nInterleave, duration                     : 40 ms (1.00 video frame)\nInterleave, preload duration             : 500 ms\n\n\n\n\n\n\nSource Used\n\nThe.Host.2013.READNFO.CAM.XviD.HUN-BEOWULF/The_Host_2013_CAM_ENGLISH / Thanks\n\nScreens:\n &lt;a href=&quot;\nhttp://www.shotpix.com/images/94945623580490489245.png&quot; rel=&quot;nofollow&quot; target=&quot;_NEW&quot;&gt;\nhttp://www.shotpix.com/images/94945623580490489245.png&lt;/a&gt; &lt;a href=&quot;\nhttp://www.shotpix.com/images/43052515474324806779.png&quot; rel=&quot;nofollow&quot; target=&quot;_NEW&quot;&gt;\nhttp://www.shotpix.com/images/43052515474324806779.png&lt;/a&gt; &lt;a href=&quot;\nhttp://www.shotpix.com/images/49828896689261250360.png&quot; rel=&quot;nofollow&quot; target=&quot;_NEW&quot;&gt;\nhttp://www.shotpix.com/images/49828896689261250360.png&lt;/a&gt; &lt;a href=&quot;\nhttp://www.shotpix.com/images/09175862768982373865.png&quot; rel=&quot;nofollow&quot; target=&quot;_NEW&quot;&gt;\nhttp://www.shotpix.com/images/09175862768982373865.png&lt;/a&gt;\n","torrent":{"xt":"urn:btih:2ddf01821dfec5d9cff04eecb406178aaa794b67","amp;dn":"The+Host+2013+CAM+XViD+OPTiMUM","amp;tr":["udp%3A%2F%2Ftracker.openbittorrent.com%3A80","udp%3A%2F%2Fopen.demonii.com%3A1337","udp%3A%2F%2Ftracker.coppersurfer.tk%3A6969","udp%3A%2F%2Fexodus.desync.com%3A6969"],"infoHash":"2ddf01821dfec5d9cff04eecb406178aaa794b67","infoHashBuffer":{"type":"Buffer","data":[45,223,1,130,29,254,197,217,207,240,78,236,180,6,23,138,170,121,75,103]},"announce":[],"urlList":[]}}